<?xml version="1.0" encoding="UTF-8"?>
<svg id="Ebene_1" xmlns="http://www.w3.org/2000/svg" version="1.1" viewBox="0 0 420 130">
  <!-- Generator: Adobe Illustrator 29.1.0, SVG Export Plug-In . SVG Version: 2.1.0 Build 142)  -->
  <defs>
    <style>
      .st0 {
        fill: none;
      }

      .st1 {
        fill: #21558a;
      }

      .st2 {
        fill: #a5c758;
      }

      .st3 {
        fill: #21aa58;
      }

      .st4 {
        fill: #f17b41;
      }

      .st5 {
        fill: #21746c;
      }

      .st6 {
        fill: #eaa64f;
      }

      .st7 {
        fill: #184e6c;
      }
    </style>
  </defs>
  <path class="st4" d="M174.9,82.5c-.2.6-10.1,3.9-11.5,4.4l-23.6.5c-.7-.2-4.2-6.9-4.6-7.1s-1.2,0-1.3.5,4.8,7.8,5.3,7.9c7.8-.6,17.2.6,24.8-.5,3.3-.5,7.5-3.3,11-3.8v9.1l-19.4,11.1-16.6.3-12.7-19.9c.2-.9,10-4.4,6.1-6.2s-3.6.8-5.3-2c-4.2-6.9,8.4-10.1,8.2-2.2s-2.2,4.7-.1,5,6.3-3.9,7.6-4.2c7.1-1.4,17.1.3,24.5-.8,2-.7,5.8-10.7,7.8-12.7v20.5ZM132.5,72.3c-3.4-2.5-6.3,3.2-3.1,4.6s5.6-2.8,3.1-4.6Z"/>
  <path class="st2" d="M132.5,11.3c4.1,2.3,8,4.8,12.1,7.1l8.4,14.5c-1.5,2.3-9.8,20.1-10.9,20.6s-8.3-6.6-8.5-2.1,2.1,1.8,1.2,5c-1.9,6.8-13.1.6-7.4-4.8s6.2-.5,5.4-3.1-6.4-3.6-7.5-4.8c-2-2.2-11.7-20.3-12.8-20.9-1.6-.8-12,.5-14.5.2l-.3-.5,17.2-9.7c.5-.4.7-.2,1.2,0s8.3,6.8,8.9,7.6c4.4,5.5,7.7,14.1,12,19.9.3,1.6-3.6,6.9-3.6,7.9s.9.9,1.2.8,4.1-7.5,4.2-7.9c.3-1.5-11.5-19.1-12.8-22-1.1-1.3-8.7-6.8-8.7-7.3s7.2-4.5,7.7-4.5,6.4,3.5,7.5,4.1ZM129.9,52.1c-2.5.4-2.9,4-.7,5,4.5,2,5.6-5.9.7-5Z"/>
  <path class="st7" d="M118,78.9c-.1,0-1,1.7-.9,2.1.3.6,6.5,3.6,7.5,4.4l13.1,21.1,14.6.2c-2.3.8-16.9,10.3-18,9.9s-8.3-6.8-8.9-7.5c-4.5-5.2-7.8-14.6-12.2-20.2-.3-1.5,3.6-6.7,3.6-7.9s-1.1-.8-1.2-.8c-.5.1-3.8,7.5-4.4,8.5l12.9,21.2c.8,1.2,8.9,7.1,8.8,7.7s-7,4-7.9,4.6l-19.3-11.2-8.7-14.8c1.9-2.1,9.8-19.8,10.8-20.3s7.4,4.2,7.8,4,.9-1.9.9-2c0-.4-1.2-1.3-1.4-2.4-1.3-7.5,10.5-7.1,8.6.4s-4.6,2.3-5.7,2.9ZM119.1,71.8c-3.4.4-2.9,5.8.6,5.6s3.4-6-.6-5.6Z"/>
  <g>
    <path class="st0" d="M118.1,52.4c-3.1.8-1.8,6.6,2.1,5.2,2.9-1,2-6.2-2.1-5.2Z"/>
    <path class="st3" d="M114.8,49.4c0-.4-4.4-7.1-4.8-7.2-7.5,1-16.6-.7-23.9.5-3.5.6-7.7,3.2-11.3,4v20.8l7.1-12.7,24.1-.8c1.1,0,8.6-4.1,8.6-4.6Z"/>
    <path class="st3" d="M117.5,50.6c-.1,0-1.1-1.8-1-2.1.2-.4,6.5-3.3,7.3-4.2-1.7-2.2-11.5-19.7-12.6-20-1.2-.3-15.2,0-16.7.3-4.8,1.1-14.2,9.1-19.3,11.1h-.2v9.2c.2,0,.3-.2.5-.2,3.5-1.2,7-2.5,10.5-3.8l25-.4c.7.9,5.4,7.6,5.3,8.1,0,.4-1.1.4-1.2.7-.2.6.9,1.4.9,2.1,0,.9-2.3,1.9-1,5.2,2.4,6,11.7.9,7.6-4.5-1.9-2.5-4.1-1.1-5.2-1.6ZM120.2,57.5c-3.9,1.4-5.2-4.3-2.1-5.2,4.1-1.1,5,4.1,2.1,5.2Z"/>
  </g>
  <path class="st6" d="M143,63.7c-.3-2.8.2-6,0-8.8l11.8-22.1c0-1.5-7-10.6-7.1-12s0-.4.3-.3l16.7,9.6c.6.3.5.9.5,1.4,0,1.5-1.5,9.6-2.1,11.2-2.2,6.3-8.6,13.8-11.2,20.3-.8.6-7.6.9-9,.9,0,.3,0,1.4,0,1.4.4.3,9.3-.1,9.9-.5l11.9-21.4c.6-1.4,1.7-11.7,2.3-11.9s6.7,4.1,7.8,4.5v22.6s-8.1,14.6-8.1,14.6l-23.6.8v-8.5c-3.8-.5-2.3,3.8-6.9,3.7-7.3-.2-4.2-12.2,2.6-8.2s0,2.7,4.3,2.9ZM134.1,62.8c-3,4.8,5.5,6.3,4.9,1.2s-3.7-3.1-4.9-1.2Z"/>
  <g>
    <path class="st0" d="M113.4,62.1c-3.5.3-3.3,6,.9,5.4,3.2-.5,2.6-5.7-.9-5.4Z"/>
    <path class="st5" d="M106.8,55.4l-23.2.8-8.4,14.8v22.5c1,.4,7.4,4.8,7.8,4.5.5-.4,1.5-10.2,2.1-11.5l12-21.6c.9-.8,8-.6,9.8-.7.2-2.8-.2-5.9,0-8.7Z"/>
    <path class="st5" d="M114.3,60.4c-4.4-.4-4.1,3-5.1,3.7-.4.3-1.8,0-2.4.1,0,.3,0,1.3,0,1.4-.4.5-7.7,0-8.7.5-1.1.5-9.6,18.6-11.5,20.8l-1.9,12.3c5.8,2.4,11.7,7.7,17.3,9.9,1,.4.2,0,0-.2-.9-1.7-7.1-11.6-7.1-12.4l11.8-21.8v-8.9c3.5-.7,2.2,1.1,4.1,2.6,6.3,4.7,10.5-7.3,3.3-8ZM114.3,67.4c-4.1.6-4.3-5.1-.9-5.4,3.5-.3,4.1,4.9.9,5.4Z"/>
  </g>
  <path class="st1" d="M203.1,92.4c21.1,8.1,44.8-6.8,43-30.1h-35.5v9.5h21.8c-4.3,16.2-28.2,16.5-34.7,1.5-8.7-20,13.6-38.6,29.4-24.4,1,.9,2.9,4,3.2,4h13.5c-7.4-19.7-33.7-25.1-49.4-11.7-17.1,14.6-12.2,43.3,8.8,51.3Z"/>
  <path class="st1" d="M265.9,45.2h9.6c11.6,0,13.7,17.8,2.6,20.4-1.7.4-3.4.3-5.1.7-.5,0-3.7-.2-3.8.2,0,.2.2.4.2.5h0c0,.2,0,.2,0,.2l15.2,26.2h12.2c-.8-2.9-13-20.4-12.8-21.6,0-.2,3.4-1.2,4.1-1.6,8.5-4.6,10.3-15.1,7.2-23.7-6-16.5-27.9-10.6-41.3-11.8v58.6h11.8v-48.2Z"/>
  <path class="st1" d="M337.1,83.1c0-1.1-19.5.8-21,0v-14.2c0,0,.7,0,.9,0,5.9-.8,13.5.6,19.6,0v-10.4h-20.6v-13.2h21v-10.4h-33.1v58.6h33.1v-10.4Z"/>
  <path class="st1" d="M358.1,34.8c0-.6-10.8-.2-11.3,0,0,0-.2,0-.2,0l-.2,58.6h11.8v-58.6Z"/>
</svg>