<?xml version="1.0" encoding="UTF-8"?>
<svg id="Ebene_1" xmlns="http://www.w3.org/2000/svg" version="1.1" viewBox="0 0 420 130">
  <!-- Generator: Adobe Illustrator 29.1.0, SVG Export Plug-In . SVG Version: 2.1.0 Build 142)  -->
  <defs>
    <style>
      .st0 {
        fill: #233b54;
      }

      .st1 {
        fill: #00b1e2;
      }

      .st2 {
        fill: #243b54;
      }
    </style>
  </defs>
  <path class="st1" d="M43.1,53.5c0,0,0-.1,0-.2v-17.1c0,0,0-.2,0-.2,0,0,.1,0,.2,0h6.3c1.1,0,2.3.2,3.3.7.9.4,1.7,1.1,2.2,1.9.5.8.8,1.8.8,2.8v7c0,1-.3,2-.8,2.8-.5.8-1.3,1.5-2.2,1.9-1,.5-2.2.7-3.3.7h-6.3c0,0-.2,0-.2-.1ZM46.7,50.5h3.1c.7,0,1.4-.3,1.9-.8.5-.6.8-1.3.7-2.1v-5.8c0-.8-.2-1.5-.7-2.1-.5-.5-1.2-.8-1.9-.8h-3c0,0-.1,0-.1,0,0,0,0,0,0,0v11.3c0,0,0,.1.1.1,0,0,0,0,0,0h0Z"/>
  <path class="st1" d="M66.4,41c.8.3,1.5.9,2,1.6.5.6.7,1.4.7,2.2v8.6c0,0,0,.2,0,.2,0,0-.1,0-.2,0h-3c0,0-.2,0-.2,0,0,0,0-.1,0-.2v-.8s0,0,0-.1c0,0,0,0-.1,0-.7.9-1.8,1.4-3.4,1.4-1.1,0-2.3-.3-3.2-1-.8-.7-1.3-1.7-1.2-2.8,0-1.2.4-2.3,1.4-3,.9-.7,2.2-1.1,3.9-1.1h2.6c0,0,.1,0,.1,0,0,0,0,0,0,0v-.6c0-.5-.1-1-.5-1.3-.4-.3-1-.5-1.5-.5-.4,0-.9,0-1.3.3-.3.2-.6.4-.7.8,0,.2-.2.3-.3.3,0,0,0,0,0,0l-3.1-.4c-.2,0-.3-.1-.3-.2,0-.7.4-1.4.8-1.9.5-.6,1.2-1.1,2-1.3.9-.3,1.8-.5,2.7-.5,1,0,2,.2,2.9.6ZM64.8,50.6c.5-.3.8-.9.8-1.5v-.9c0,0,0-.1,0-.1,0,0,0,0,0,0h-1.8c-.6,0-1.2.1-1.8.4-.4.3-.7.7-.6,1.2,0,.4.2.8.5,1.1.4.3.8.4,1.3.4.7,0,1.3-.2,1.8-.6h0Z"/>
  <path class="st1" d="M78.2,43.4c0,0-.1,0-.2,0h-2.4c0,0-.1,0-.1.1v5.4c0,.4,0,.9.3,1.2.3.3.7.4,1.1.4h.8c.2,0,.3.1.3.3v2.4c0,.2-.1.3-.3.3,0,0,0,0,0,0-.7,0-1.2,0-1.5,0-1.4,0-2.4-.2-3.1-.7-.7-.5-1-1.3-1.1-2.6v-6.7c0,0,0-.1,0-.1,0,0,0,0,0,0h-1.4c0,0-.2,0-.2,0,0,0,0-.1,0-.2v-2.3c0,0,0-.2,0-.2,0,0,.1,0,.2,0h1.4c0,0,.1,0,.1,0,0,0,0,0,0,0v-3c0,0,0-.2,0-.2,0,0,.1,0,.2,0h2.8c.2,0,.3.1.3.3v3c0,0,0,.1,0,.1,0,0,0,0,0,0h2.4c.2,0,.3.1.3.3,0,0,0,0,0,0v2.2c0,0,0,.2,0,.2Z"/>
  <path class="st1" d="M88.6,41c.8.3,1.5.9,2,1.6.5.6.7,1.4.7,2.2v8.6c0,0,0,.2,0,.2,0,0-.1,0-.2,0h-3c0,0-.2,0-.2,0,0,0,0-.1,0-.2v-.8s0,0,0-.1c0,0,0,0-.1,0-.7.9-1.8,1.4-3.4,1.4-1.1,0-2.3-.3-3.2-1-.8-.7-1.3-1.7-1.2-2.8,0-1.2.5-2.3,1.4-3,.9-.7,2.2-1.1,3.9-1.1h2.6c0,0,.1,0,.1,0,0,0,0,0,0,0v-.6c0-.5-.1-1-.5-1.3-.4-.3-1-.5-1.5-.5-.4,0-.9,0-1.3.3-.3.2-.6.4-.7.8,0,.2-.2.3-.3.3l-3.1-.4c-.2,0-.3-.1-.3-.2,0-.7.4-1.4.8-1.9.5-.6,1.2-1.1,2-1.3.9-.3,1.8-.5,2.7-.5,1,0,2,.2,2.9.6ZM87,50.6c.5-.3.8-.9.8-1.5v-.9c0,0,0-.1-.1-.1,0,0,0,0,0,0h-1.8c-.6,0-1.2.1-1.8.4-.4.3-.7.7-.6,1.2,0,.4.2.8.5,1.1.4.3.8.4,1.3.4.7,0,1.3-.2,1.8-.6h0Z"/>
  <path class="st2" d="M97.1,53.1c-.9-.4-1.6-1.1-2.1-2-.5-.9-.8-1.9-.7-2.9v-6.9c0-1,.2-2,.7-2.9.5-.8,1.2-1.5,2.1-2,1-.5,2-.7,3.1-.7,1.1,0,2.1.2,3.1.7.9.4,1.6,1.1,2.1,1.9.5.9.8,1.9.7,2.9,0,0,0,.1,0,.2,0,0-.1,0-.2,0h-1.3c-.2,0-.3,0-.3-.2h0c0-1.2-.4-2.2-1.1-3-.8-.7-1.9-1.1-3-1.1-1.1,0-2.2.3-3,1.1-.8.7-1.2,1.8-1.1,2.9v7.1c0,1.1.4,2.1,1.1,2.9,1.7,1.4,4.3,1.4,6,0,.8-.7,1.2-1.8,1.1-2.9h0c0-.2,0-.3.3-.3h1.3c.2,0,.3.2.3.3,0,1-.2,2-.7,2.9-.5.8-1.2,1.5-2.1,1.9-1,.5-2,.7-3.1.7-1.1,0-2.1-.2-3.1-.7Z"/>
  <path class="st2" d="M108.8,38.1c-.3-.3-.4-.6-.4-1,0-.4.1-.8.4-1,.6-.5,1.4-.5,2,0,.3.3.4.6.4,1,0,.8-.7,1.4-1.5,1.4-.3,0-.7-.1-.9-.4h0ZM108.8,53.3v-12.3c0-.1,0-.2.2-.3,0,0,0,0,0,0h1.3c.1,0,.2,0,.3.2,0,0,0,0,0,0v12.3c0,.1,0,.2-.2.3,0,0,0,0,0,0h-1.3c-.1,0-.2,0-.3-.2,0,0,0,0,0,0h0Z"/>
  <path class="st2" d="M119.8,42.3h-2.9c0,0,0,0-.1,0,0,0,0,0,0,0v7.5c0,.6.1,1.2.5,1.7.5.4,1.1.5,1.7.5h.6c.1,0,.2,0,.3.2,0,0,0,0,0,0v1.1c0,.1,0,.2-.2.3,0,0,0,0,0,0-.2,0-.5,0-.9,0-1,0-1.9-.2-2.8-.7-.6-.5-.9-1.3-.9-2.5v-8c0,0,0,0,0-.1,0,0,0,0,0,0h-1.5c-.1,0-.2,0-.3-.2,0,0,0,0,0,0v-1c0-.1,0-.2.2-.3,0,0,0,0,0,0h1.5c0,0,0,0,.1,0,0,0,0,0,0,0v-2.9c0-.1,0-.2.2-.3,0,0,0,0,0,0h1.2c.1,0,.2,0,.3.2,0,0,0,0,0,0v2.9c0,0,0,0,0,.1,0,0,0,0,0,0h2.9c.1,0,.2,0,.3.2,0,0,0,0,0,0v1c0,.1,0,.2-.2.3,0,0,0,0,0,0Z"/>
  <path class="st2" d="M131.7,46.8v.8c0,.1,0,.2-.2.3,0,0,0,0,0,0h-8.2c0,0,0,0-.1,0,0,0,0,0,0,0,0,.6,0,1.2.2,1.8.2.7.6,1.4,1.2,1.8.7.5,1.5.7,2.3.7.7,0,1.3-.2,1.9-.5.5-.3,1-.8,1.3-1.4.1-.2.2-.2.4-.1l1,.6c.1,0,.2.2.1.3,0,0,0,0,0,0-.4.8-1.1,1.5-1.9,1.9-.9.5-1.9.7-2.9.7-1.1,0-2.1-.3-3-.9-.8-.6-1.4-1.4-1.7-2.3-.3-1.1-.5-2.3-.5-3.5,0-.7,0-1.3,0-1.7,0-.4,0-.8.2-1.2.3-1,.9-2,1.7-2.6.9-.7,2-1,3.1-1,1.5,0,2.7.4,3.5,1.2.9.9,1.4,2,1.5,3.3,0,.6.1,1.2,0,1.8ZM124.5,42.8c-.6.4-.9,1-1.1,1.7-.1.6-.2,1.1-.2,1.7,0,0,0,0,0,.1,0,0,0,0,0,0h6.5c0,0,0,0,.1,0,0,0,0,0,0,0,0-.5,0-1.1-.1-1.6-.2-.7-.6-1.3-1.1-1.8-.6-.5-1.4-.7-2.1-.7-.7,0-1.5.2-2.1.6h0Z"/>
  <path class="st1" d="M0,52.1c.2,0,.5,0,.8.1,12.4,2.5,30.9-.8,33.2-6.8,1.9-4.9-8.5-8.3-20.7-7.9-.2,0-.5,0-.7,0,6.5.6,12.3,3.2,10,7.2-2.5,4.4-13.4,7.3-22.6,7.3"/>
  <path class="st2" d="M27.2,52.7c-2.1,13-13.4,5.3-16.1-3.8-3.9-9.4-.4-21.5,9.2-14.5-8-3.7-8.8,7-5.4,14.5,2.8,6.3,9,10.4,12,3.9.1,0,.2,0,.3,0"/>
  <g>
    <path class="st0" d="M59.7,60.5h3.2c.1,0,.2,0,.3.1,0,0,.1.2.1.3v23.8c0,.1,0,.2-.1.3,0,0-.2.1-.3.1h-3.2c-.1,0-.2,0-.3-.1,0,0-.1-.2-.1-.3v-16.8c0,0,0-.1,0-.1,0,0-.1,0-.1,0l-4.4,6.8c-.1.2-.3.3-.5.3h-1.6c-.2,0-.4,0-.5-.3l-4.4-6.7c0,0,0,0-.1,0,0,0,0,0,0,.1v16.8c0,.1,0,.2-.1.3,0,0-.2.1-.3.1h-3.2c-.1,0-.2,0-.3-.1,0,0-.1-.2-.1-.3v-23.8c0-.1,0-.2.1-.3,0,0,.2-.1.3-.1h3.2c.2,0,.4,0,.5.3l5.7,8.7s0,0,.1,0,0,0,.1,0l5.7-8.7c.1-.2.3-.3.5-.3Z"/>
    <path class="st0" d="M83.5,76.1v1.1c0,.3-.2.4-.5.4h-11c-.1,0-.2,0-.2.2,0,.8.2,1.3.3,1.6.6,1.7,1.9,2.6,4.1,2.6,1.6,0,2.9-.7,3.8-2,0-.1.2-.2.4-.2s.2,0,.2.1l2.2,1.8c.2.2.2.4.1.6-.7,1-1.7,1.8-2.9,2.4-1.2.6-2.6.8-4,.8s-3.4-.4-4.7-1.2c-1.3-.8-2.2-2-2.8-3.5-.5-1.3-.8-3-.8-5.3s.1-2.5.4-3.3c.5-1.6,1.4-2.9,2.7-3.9,1.3-1,2.9-1.4,4.7-1.4,4.6,0,7.2,2.4,7.8,7.3,0,.6.1,1.2.1,2ZM73.3,71.1c-.6.4-1,1-1.2,1.8-.1.4-.2.9-.3,1.6,0,.1,0,.2.1.2h7.2c.1,0,.2,0,.2-.2,0-.6-.1-1-.2-1.3-.2-.8-.6-1.5-1.3-2-.6-.5-1.4-.7-2.3-.7s-1.6.2-2.2.7Z"/>
    <path class="st0" d="M96.3,70.4c0,0-.2.1-.3.1h-3.6c-.1,0-.2,0-.2.2v8.5c0,.9.2,1.5.6,1.9.4.4,1,.6,1.9.6h1.1c.1,0,.2,0,.3.1,0,0,.1.2.1.3v2.6c0,.3-.1.4-.4.5h-1.8c-1.9,0-3.2-.3-4.2-.9s-1.4-1.8-1.4-3.6v-10.1c0-.1,0-.2-.2-.2h-2c-.1,0-.2,0-.3-.1,0,0-.1-.2-.1-.3v-2.5c0-.1,0-.2.1-.3,0,0,.2-.1.3-.1h2c.1,0,.2,0,.2-.2v-4.1c0-.1,0-.2.1-.3,0,0,.2-.1.3-.1h3.1c.1,0,.2,0,.3.1,0,0,.1.2.1.3v4.1c0,.1,0,.2.2.2h3.6c.1,0,.2,0,.3.1,0,0,.1.2.1.3v2.5c0,.1,0,.2-.1.3Z"/>
    <path class="st0" d="M110.8,67.7c1.1.5,2,1.2,2.6,2.1.6.9.9,1.9.9,3.1v11.9c0,.1,0,.2-.1.3,0,0-.2.1-.3.1h-3.2c-.1,0-.2,0-.3-.1,0,0-.1-.2-.1-.3v-1.1c0,0,0-.1,0-.1,0,0,0,0-.1,0-1.2,1.3-2.8,1.9-5,1.9s-3.2-.4-4.4-1.3c-1.1-.9-1.7-2.2-1.7-4s.6-3.3,1.9-4.3c1.3-1,3.1-1.5,5.4-1.5h3.8c.1,0,.2,0,.2-.2v-.8c0-.9-.3-1.6-.8-2.1-.5-.5-1.4-.8-2.4-.8s-1.6.2-2.2.5c-.6.3-.9.8-1,1.3,0,.3-.2.4-.5.4l-3.4-.4c-.1,0-.2,0-.3-.1,0,0-.1-.1,0-.2.2-1.4,1-2.6,2.3-3.5,1.4-.9,3.1-1.4,5.1-1.4s2.8.3,3.9.8ZM109,81.3c.8-.6,1.2-1.4,1.2-2.3v-1.7c0-.1,0-.2-.2-.2h-3c-1.2,0-2.2.2-2.9.7-.7.5-1.1,1.1-1.1,2s.3,1.3.8,1.7c.6.4,1.3.6,2.1.6s2.1-.3,3-.9Z"/>
    <path class="st0" d="M129.8,60.6c0,0,.2-.1.3-.1h3.2c.1,0,.2,0,.3.1,0,0,.1.2.1.3v23.8c0,.1,0,.2-.1.3,0,0-.2.1-.3.1h-3.2c-.1,0-.2,0-.3-.1,0,0-.1-.2-.1-.3v-1.1c0,0,0-.1,0-.1,0,0,0,0-.1,0-1,1.2-2.4,1.8-4.1,1.8s-3.1-.4-4.2-1.3c-1.2-.9-2-2.1-2.5-3.6-.4-1.3-.6-2.8-.6-4.4s.2-3.1.6-4.3c.5-1.6,1.4-2.8,2.5-3.6,1.2-.9,2.6-1.3,4.3-1.3s3,.6,4,1.8c0,0,0,0,.1,0,0,0,0,0,0-.1v-7.7c0-.1,0-.2.1-.3ZM129.6,76.2c0-1.8-.3-3.2-.9-4.2-.6-1-1.5-1.6-2.7-1.6s-2.1.5-2.8,1.5c-.7,1-1.1,2.5-1.1,4.3s.3,3,.8,4.1c.7,1.1,1.7,1.7,3,1.7s2.1-.6,2.8-1.7c.5-1,.8-2.3.8-4.1Z"/>
    <path class="st0" d="M149,67.7c1.1.5,2,1.2,2.6,2.1.6.9.9,1.9.9,3.1v11.9c0,.1,0,.2-.1.3,0,0-.2.1-.3.1h-3.2c-.1,0-.2,0-.3-.1,0,0-.1-.2-.1-.3v-1.1c0,0,0-.1,0-.1,0,0,0,0-.1,0-1.2,1.3-2.8,1.9-5,1.9s-3.2-.4-4.4-1.3c-1.1-.9-1.7-2.2-1.7-4s.6-3.3,1.9-4.3c1.3-1,3.1-1.5,5.4-1.5h3.8c.1,0,.2,0,.2-.2v-.8c0-.9-.3-1.6-.8-2.1-.5-.5-1.4-.8-2.4-.8s-1.6.2-2.2.5c-.6.3-.9.8-1,1.3,0,.3-.2.4-.5.4l-3.4-.4c-.1,0-.2,0-.3-.1,0,0-.1-.1,0-.2.2-1.4,1-2.6,2.3-3.5,1.4-.9,3.1-1.4,5.1-1.4s2.8.3,3.9.8ZM147.2,81.3c.8-.6,1.2-1.4,1.2-2.3v-1.7c0-.1,0-.2-.2-.2h-3c-1.2,0-2.2.2-2.9.7-.7.5-1.1,1.1-1.1,2s.3,1.3.8,1.7c.6.4,1.3.6,2.1.6s2.1-.3,3-.9Z"/>
    <path class="st0" d="M165.7,70.4c0,0-.2.1-.3.1h-3.6c-.1,0-.2,0-.2.2v8.5c0,.9.2,1.5.6,1.9.4.4,1,.6,1.9.6h1.1c.1,0,.2,0,.3.1,0,0,.1.2.1.3v2.6c0,.3-.1.4-.4.5h-1.8c-1.9,0-3.2-.3-4.2-.9s-1.4-1.8-1.4-3.6v-10.1c0-.1,0-.2-.2-.2h-2c-.1,0-.2,0-.3-.1s-.1-.2-.1-.3v-2.5c0-.1,0-.2.1-.3,0,0,.2-.1.3-.1h2c.1,0,.2,0,.2-.2v-4.1c0-.1,0-.2.1-.3,0,0,.2-.1.3-.1h3.1c.1,0,.2,0,.3.1,0,0,.1.2.1.3v4.1c0,.1,0,.2.2.2h3.6c.1,0,.2,0,.3.1,0,0,.1.2.1.3v2.5c0,.1,0,.2-.1.3Z"/>
    <path class="st0" d="M180.3,67.7c1.1.5,2,1.2,2.6,2.1.6.9.9,1.9.9,3.1v11.9c0,.1,0,.2-.1.3,0,0-.2.1-.3.1h-3.2c-.1,0-.2,0-.3-.1,0,0-.1-.2-.1-.3v-1.1c0,0,0-.1,0-.1,0,0,0,0-.1,0-1.2,1.3-2.8,1.9-5,1.9s-3.2-.4-4.4-1.3c-1.1-.9-1.7-2.2-1.7-4s.6-3.3,1.9-4.3c1.3-1,3.1-1.5,5.4-1.5h3.8c.1,0,.2,0,.2-.2v-.8c0-.9-.3-1.6-.8-2.1-.5-.5-1.4-.8-2.4-.8s-1.6.2-2.2.5c-.6.3-.9.8-1,1.3,0,.3-.2.4-.5.4l-3.4-.4c-.1,0-.2,0-.3-.1,0,0-.1-.1,0-.2.2-1.4,1-2.6,2.3-3.5,1.4-.9,3.1-1.4,5.1-1.4s2.8.3,3.9.8ZM178.5,81.3c.8-.6,1.2-1.4,1.2-2.3v-1.7c0-.1,0-.2-.2-.2h-3c-1.2,0-2.2.2-2.9.7-.7.5-1.1,1.1-1.1,2s.3,1.3.8,1.7c.6.4,1.3.6,2.1.6s2.1-.3,3-.9Z"/>
    <path class="st0" d="M208.9,60.6c0,0,.2-.1.3-.1h3.2c.1,0,.2,0,.3.1,0,0,.1.2.1.3v23.8c0,.1,0,.2-.1.3,0,0-.2.1-.3.1h-3.2c-.1,0-.2,0-.3-.1,0,0-.1-.2-.1-.3v-10.1c0-.1,0-.2-.2-.2h-9c-.1,0-.2,0-.2.2v10.1c0,.1,0,.2-.1.3s-.2.1-.3.1h-3.2c-.1,0-.2,0-.3-.1,0,0-.1-.2-.1-.3v-23.8c0-.1,0-.2.1-.3s.2-.1.3-.1h3.2c.1,0,.2,0,.3.1,0,0,.1.2.1.3v9.9c0,.1,0,.2.2.2h9c.1,0,.2,0,.2-.2v-9.9c0-.1,0-.2.1-.3Z"/>
    <path class="st0" d="M232.8,76.1v1.1c0,.3-.2.4-.5.4h-11c-.1,0-.2,0-.2.2,0,.8.2,1.3.3,1.6.6,1.7,1.9,2.6,4.1,2.6,1.6,0,2.9-.7,3.8-2,0-.1.2-.2.4-.2s.2,0,.2.1l2.2,1.8c.2.2.2.4.1.6-.7,1-1.7,1.8-2.9,2.4-1.2.6-2.6.8-4,.8s-3.4-.4-4.7-1.2c-1.3-.8-2.2-2-2.8-3.5-.5-1.3-.8-3-.8-5.3s.1-2.5.4-3.3c.5-1.6,1.4-2.9,2.7-3.9,1.3-1,2.9-1.4,4.7-1.4,4.6,0,7.2,2.4,7.8,7.3,0,.6.1,1.2.1,2ZM222.6,71.1c-.6.4-1,1-1.2,1.8-.1.4-.2.9-.3,1.6,0,.1,0,.2.1.2h7.2c.1,0,.2,0,.2-.2,0-.6-.1-1-.2-1.3-.2-.8-.6-1.5-1.3-2-.6-.5-1.4-.7-2.3-.7s-1.6.2-2.2.7Z"/>
    <path class="st0" d="M247.1,67.7c1.1.5,2,1.2,2.6,2.1.6.9.9,1.9.9,3.1v11.9c0,.1,0,.2-.1.3,0,0-.2.1-.3.1h-3.2c-.1,0-.2,0-.3-.1,0,0-.1-.2-.1-.3v-1.1c0,0,0-.1,0-.1,0,0,0,0-.1,0-1.2,1.3-2.8,1.9-5,1.9s-3.2-.4-4.4-1.3c-1.1-.9-1.7-2.2-1.7-4s.6-3.3,1.9-4.3c1.3-1,3.1-1.5,5.4-1.5h3.8c.1,0,.2,0,.2-.2v-.8c0-.9-.3-1.6-.8-2.1-.5-.5-1.4-.8-2.4-.8s-1.6.2-2.2.5c-.6.3-.9.8-1,1.3,0,.3-.2.4-.5.4l-3.4-.4c-.1,0-.2,0-.3-.1,0,0-.1-.1,0-.2.2-1.4,1-2.6,2.3-3.5,1.4-.9,3.1-1.4,5.1-1.4s2.8.3,3.9.8ZM245.3,81.3c.8-.6,1.2-1.4,1.2-2.3v-1.7c0-.1,0-.2-.2-.2h-3c-1.2,0-2.2.2-2.9.7-.7.5-1.1,1.1-1.1,2s.3,1.3.8,1.7c.6.4,1.3.6,2.1.6s2.1-.3,3-.9Z"/>
    <path class="st0" d="M254.8,85.1c0,0-.1-.2-.1-.3v-23.8c0-.1,0-.2.1-.3,0,0,.2-.1.3-.1h3.2c.1,0,.2,0,.3.1,0,0,.1.2.1.3v23.8c0,.1,0,.2-.1.3,0,0-.2.1-.3.1h-3.2c-.1,0-.2,0-.3-.1Z"/>
    <path class="st0" d="M272.6,70.4c0,0-.2.1-.3.1h-3.6c-.1,0-.2,0-.2.2v8.5c0,.9.2,1.5.6,1.9.4.4,1,.6,1.9.6h1.1c.1,0,.2,0,.3.1,0,0,.1.2.1.3v2.6c0,.3-.1.4-.4.5h-1.8c-1.9,0-3.2-.3-4.2-.9s-1.4-1.8-1.4-3.6v-10.1c0-.1,0-.2-.2-.2h-2c-.1,0-.2,0-.3-.1s-.1-.2-.1-.3v-2.5c0-.1,0-.2.1-.3,0,0,.2-.1.3-.1h2c.1,0,.2,0,.2-.2v-4.1c0-.1,0-.2.1-.3,0,0,.2-.1.3-.1h3.1c.1,0,.2,0,.3.1,0,0,.1.2.1.3v4.1c0,.1,0,.2.2.2h3.6c.1,0,.2,0,.3.1,0,0,.1.2.1.3v2.5c0,.1,0,.2-.1.3Z"/>
    <path class="st0" d="M289.5,68.6c1.1,1.1,1.7,2.7,1.7,4.6v11.6c0,.1,0,.2-.1.3,0,0-.2.1-.3.1h-3.2c-.1,0-.2,0-.3-.1s-.1-.2-.1-.3v-10.7c0-1.1-.3-2-.9-2.6-.6-.7-1.4-1-2.4-1s-1.8.3-2.5,1c-.6.7-.9,1.5-.9,2.6v10.8c0,.1,0,.2-.1.3,0,0-.2.1-.3.1h-3.2c-.1,0-.2,0-.3-.1,0,0-.1-.2-.1-.3v-23.8c0-.1,0-.2.1-.3,0,0,.2-.1.3-.1h3.2c.1,0,.2,0,.3.1,0,0,.1.2.1.3v7.8c0,0,0,.1,0,.1,0,0,0,0,.1,0,1-1.3,2.4-1.9,4.4-1.9s3.4.6,4.6,1.7Z"/>
    <path class="st0" d="M316.3,84.9l-4.7-10.2c0,0-.1-.1-.2-.1h-4.2c-.1,0-.2,0-.2.2v10c0,.1,0,.2-.1.3s-.2.1-.3.1h-3.2c-.1,0-.2,0-.3-.1,0,0-.1-.2-.1-.3v-23.8c0-.1,0-.2.1-.3s.2-.1.3-.1h9.7c1.4,0,2.7.3,3.8.9,1.1.6,2,1.4,2.6,2.5.6,1.1.9,2.3.9,3.8s-.4,3-1.3,4.1c-.8,1.1-2,1.9-3.5,2.4,0,0,0,0-.1,0,0,0,0,0,0,.1l5,10.3c0,0,0,.2,0,.2,0,.2-.1.3-.4.3h-3.4c-.2,0-.4-.1-.5-.3ZM307.1,64.2v7c0,.1,0,.2.2.2h5.3c1.1,0,2-.3,2.7-1,.7-.7,1-1.6,1-2.7s-.3-2-1-2.7c-.7-.7-1.6-1-2.7-1h-5.3c-.1,0-.2,0-.2.2Z"/>
    <path class="st0" d="M339.3,76.1v1.1c0,.3-.2.4-.5.4h-11c-.1,0-.2,0-.2.2,0,.8.2,1.3.3,1.6.6,1.7,1.9,2.6,4.1,2.6,1.6,0,2.9-.7,3.8-2,0-.1.2-.2.4-.2s.2,0,.2.1l2.2,1.8c.2.2.2.4.1.6-.7,1-1.7,1.8-2.9,2.4-1.2.6-2.6.8-4,.8s-3.4-.4-4.7-1.2c-1.3-.8-2.2-2-2.8-3.5-.5-1.3-.8-3-.8-5.3s.1-2.5.4-3.3c.5-1.6,1.4-2.9,2.7-3.9,1.3-1,2.9-1.4,4.7-1.4,4.6,0,7.2,2.4,7.8,7.3,0,.6.1,1.2.1,2ZM329.2,71.1c-.6.4-1,1-1.2,1.8-.1.4-.2.9-.3,1.6,0,.1,0,.2.1.2h7.2c.1,0,.2,0,.2-.2,0-.6-.1-1-.2-1.3-.2-.8-.6-1.5-1.3-2-.6-.5-1.4-.7-2.3-.7s-1.6.2-2.2.7Z"/>
    <path class="st0" d="M359,76.2c0,1.7-.2,3.1-.6,4.3-.5,1.6-1.3,2.8-2.5,3.6-1.1.9-2.6,1.3-4.3,1.3s-3-.6-4-1.8c0,0,0,0-.1,0,0,0,0,0,0,.1v7.7c0,.1,0,.2-.1.3,0,0-.2.1-.3.1h-3.2c-.1,0-.2,0-.3-.1,0,0-.1-.2-.1-.3v-23.8c0-.1,0-.2.1-.3,0,0,.2-.1.3-.1h3.2c.1,0,.2,0,.3.1,0,0,.1.2.1.3v1.1c0,0,0,.1,0,.1,0,0,0,0,.1,0,1-1.2,2.4-1.8,4.1-1.8s3.1.4,4.2,1.3c1.2.9,2,2.1,2.5,3.6.4,1.2.6,2.7.6,4.4ZM354.8,76.2c0-1.7-.3-3.1-.8-4.1-.7-1.2-1.7-1.7-3-1.7s-2.1.6-2.8,1.7c-.5.9-.8,2.3-.8,4.1s.3,3.3.9,4.2c.6,1,1.5,1.6,2.6,1.6s2.2-.5,2.8-1.5c.7-1.1,1.1-2.5,1.1-4.3Z"/>
    <path class="st0" d="M365.6,84.1c-1.3-.9-2.3-2.2-2.8-3.9-.4-1.3-.6-2.6-.6-4s.2-2.8.6-4c.5-1.6,1.5-2.9,2.8-3.8,1.3-.9,3-1.4,4.8-1.4s3.3.5,4.6,1.4c1.3.9,2.2,2.2,2.8,3.8.4,1.1.6,2.5.6,4s-.2,2.8-.6,4c-.5,1.7-1.5,3-2.8,3.9-1.3,1-2.9,1.4-4.7,1.4s-3.5-.5-4.8-1.4ZM372.7,81.2c.6-.5,1.1-1.2,1.4-2.1.2-.8.4-1.8.4-3s-.1-2.3-.4-3c-.3-.9-.7-1.6-1.3-2.1-.6-.5-1.4-.7-2.3-.7s-1.6.2-2.3.7c-.6.5-1.1,1.2-1.4,2.1-.2.8-.4,1.8-.4,3s.1,2.1.4,3c.3.9.7,1.6,1.4,2.1.6.5,1.4.7,2.3.7s1.6-.2,2.2-.7Z"/>
    <path class="st0" d="M392.7,67.4c.2,0,.3.3.2.5l-.6,3.2c0,.3-.2.4-.5.2-.4-.1-.8-.2-1.2-.2s-.5,0-.7,0c-1,0-1.8.4-2.5,1-.7.6-1,1.5-1,2.5v10c0,.1,0,.2-.1.3,0,0-.2.1-.3.1h-3.2c-.1,0-.2,0-.3-.1,0,0-.1-.2-.1-.3v-17.2c0-.1,0-.2.1-.3s.2-.1.3-.1h3.2c.1,0,.2,0,.3.1,0,0,.1.2.1.3v1.6c0,0,0,.1,0,.2s0,0,.1,0c1-1.5,2.4-2.3,4.1-2.3s1.4.2,2,.5Z"/>
    <path class="st0" d="M405.4,70.4c0,0-.2.1-.3.1h-3.6c-.1,0-.2,0-.2.2v8.5c0,.9.2,1.5.6,1.9.4.4,1,.6,1.9.6h1.1c.1,0,.2,0,.3.1,0,0,.1.2.1.3v2.6c0,.3-.1.4-.4.5h-1.8c-1.9,0-3.2-.3-4.2-.9s-1.4-1.8-1.4-3.6v-10.1c0-.1,0-.2-.2-.2h-2c-.1,0-.2,0-.3-.1s-.1-.2-.1-.3v-2.5c0-.1,0-.2.1-.3,0,0,.2-.1.3-.1h2c.1,0,.2,0,.2-.2v-4.1c0-.1,0-.2.1-.3,0,0,.2-.1.3-.1h3.1c.1,0,.2,0,.3.1,0,0,.1.2.1.3v4.1c0,.1,0,.2.2.2h3.6c.1,0,.2,0,.3.1,0,0,.1.2.1.3v2.5c0,.1,0,.2-.1.3Z"/>
  </g>
</svg>